<?xml version="1.0" encoding="utf-8"?>
<svg version="1.0" width="200.000000pt" height="200.000000pt" viewBox="0 0 200.000000 200.000000" preserveAspectRatio="xMidYMid meet" xmlns="http://www.w3.org/2000/svg">
  <g transform="translate(0.000000,200.000000) scale(0.100000,-0.100000)" fill="#1e7312" stroke="none">
    <path d="M837 1884 c-179 -32 -329 -114 -467 -253 -180 -182 -260 -377 -260 -631 0 -242 77 -439 239 -612 123 -131 257 -213 426 -260 66 -18 106 -22 230 -22 134 1 160 4 238 27 156 48 257 107 376 221 180 173 272 389 273 641 0 146 -24 258 -82 382 -175 374 -570 580 -973 507z m375 -38 c325 -82 576 -343 645 -670 18 -86 19 -247 3 -335 -68 -374 -391 -671 -768 -709 -376 -38 -718 155 -881 499 -58 120 -73 185 -78 337 -5 112 -2 147 16 226 74 320 318 569 635 652 130 33 297 33 428 0z"/>
    <path d="M 910 1820 C 727 1798 578 1730 443 1607 C 270 1448 179 1240 179 1000 C 179 774 254 587 409 427 C 674 152 1092 96 1422 290 C 1521 348 1662 492 1717 590 C 1897 913 1850 1301 1597 1566 C 1482 1688 1351 1764 1195 1800 C 1095 1823 994 1830 910 1820 Z M 1198 1366 L 1195 1232 L 1225 1253 C 1245 1267 1274 1276 1315 1278 C 1369 1282 1379 1279 1408 1255 C 1425 1241 1444 1212 1450 1192 C 1456 1171 1460 560 1460 560 L 1320 560 C 1320 560 1318 1151 1304 1164 C 1283 1186 1258 1184 1226 1159 L 1200 1139 L 1200 560 L 1060 560 L 1060 1500 L 1202 1500 L 1198 1366 Z M 690 1450 L 695 1075 L 842 1450 C 842 1450 980 1447 980 1443 C 980 1438 811 1030 811 1030 C 811 1030 1000 565 1000 563 C 1000 561 848 565 848 565 L 695 960 L 692 760 L 690 560 L 550 560 L 550 1450 L 690 1450 Z"/>
  </g>
</svg>