<?xml version="1.0" standalone="no"?>
<!DOCTYPE svg PUBLIC "-//W3C//DTD SVG 20010904//EN"
 "http://www.w3.org/TR/2001/REC-SVG-20010904/DTD/svg10.dtd">
<svg version="1.0" xmlns="http://www.w3.org/2000/svg"
 width="700.000000pt" height="700.000000pt" viewBox="0 0 700.000000 700.000000"
 preserveAspectRatio="xMidYMid meet">
<metadata>
Created by potrace 1.14, written by Peter Selinger 2001-2017
</metadata>
<g transform="translate(0.000000,700.000000) scale(0.100000,-0.100000)"
fill="#000000" stroke="none">
<path d="M3377 6644 c-1 -1 -47 -4 -102 -8 -108 -7 -178 -14 -211 -21 -11 -2
-45 -7 -75 -11 -30 -3 -57 -8 -60 -10 -4 -2 -24 -6 -45 -10 -22 -3 -64 -12
-95 -19 -30 -8 -64 -16 -75 -18 -75 -14 -285 -85 -421 -143 -184 -79 -356
-175 -528 -297 -183 -130 -292 -223 -474 -407 -381 -383 -631 -786 -770 -1235
-34 -112 -76 -284 -87 -360 -3 -27 -8 -59 -10 -70 -11 -60 -18 -128 -30 -275
-13 -159 -7 -531 10 -640 2 -14 7 -51 11 -84 7 -57 10 -77 20 -133 3 -16 8
-44 11 -63 23 -145 111 -426 188 -604 178 -408 482 -813 846 -1126 41 -36 77
-68 80 -71 12 -13 171 -130 240 -176 283 -190 639 -348 962 -427 219 -53 311
-61 738 -61 485 0 580 10 845 90 588 177 1009 440 1445 902 420 444 685 973
784 1563 13 80 28 186 31 235 4 50 9 104 11 120 5 42 5 389 -1 450 -18 203
-20 222 -35 310 -92 539 -347 1074 -721 1510 -76 89 -262 274 -349 349 -221
188 -514 370 -785 487 -169 72 -433 158 -540 175 -16 3 -43 9 -60 14 -16 5
-50 12 -75 15 -25 3 -52 8 -60 10 -8 2 -40 7 -70 10 -30 3 -66 8 -80 10 -78
12 -452 27 -463 19z m408 -108 c39 -4 84 -9 100 -11 17 -2 53 -7 80 -10 178
-23 426 -88 635 -169 467 -178 922 -503 1240 -885 25 -29 50 -59 55 -65 19
-20 159 -219 202 -286 218 -344 382 -786 429 -1160 2 -19 6 -53 9 -75 9 -70
13 -607 5 -686 -5 -42 -11 -105 -15 -140 -21 -195 -89 -444 -188 -689 -230
-567 -651 -1074 -1177 -1418 -342 -223 -739 -383 -1115 -448 -14 -2 -37 -6
-52 -9 -14 -2 -47 -7 -72 -11 -25 -3 -56 -7 -69 -9 -193 -30 -659 -19 -852 20
-39 8 -62 12 -110 20 -115 18 -343 85 -515 152 -94 36 -335 151 -395 188 -95
59 -206 130 -210 136 -3 3 -27 20 -55 39 -66 44 -215 167 -290 240 -347 334
-586 691 -788 1175 -60 145 -121 360 -133 470 -3 33 -8 63 -9 66 -2 3 -7 46
-10 95 -4 49 -9 107 -11 129 -3 22 -7 175 -9 340 -4 263 -2 315 15 425 33 218
96 445 179 657 52 131 180 394 207 424 7 8 14 19 14 24 0 15 161 248 238 344
71 89 302 329 398 413 155 136 425 312 639 417 231 113 515 214 691 245 16 3
54 10 84 16 30 6 75 13 100 16 25 2 54 6 65 8 11 3 61 8 110 11 50 4 91 8 93
10 5 5 422 -3 487 -9z"/>
<path d="M3347 6384 c-1 -1 -40 -5 -87 -8 -47 -3 -96 -8 -110 -11 -14 -3 -43
-7 -65 -10 -202 -24 -504 -108 -715 -197 -609 -259 -1150 -768 -1446 -1358
-115 -229 -221 -550 -249 -750 -3 -25 -8 -52 -10 -60 -5 -20 -14 -82 -21 -155
-3 -33 -7 -76 -10 -95 -5 -47 -6 -448 0 -480 4 -21 14 -122 21 -205 2 -24 12
-75 41 -220 16 -78 66 -260 83 -300 5 -11 30 -76 57 -144 211 -540 687 -1078
1231 -1392 218 -126 551 -262 723 -295 14 -3 43 -10 65 -16 44 -11 65 -16 110
-23 17 -3 41 -7 55 -10 14 -2 43 -7 65 -10 23 -3 50 -7 62 -9 125 -25 631 -25
706 -1 7 2 35 6 62 9 145 17 322 59 515 122 58 19 114 39 125 43 57 24 79 34
190 86 299 141 494 283 775 565 258 257 409 453 533 690 174 332 293 736 325
1100 9 109 9 402 0 505 -61 670 -350 1282 -840 1777 -251 253 -487 425 -778
566 -260 126 -596 224 -880 257 -25 3 -54 7 -65 9 -63 12 -458 29 -468 20z
m857 -1216 c-11 -402 -16 -575 -18 -704 l-3 -152 77 53 c122 83 228 109 445
109 109 1 156 -19 237 -97 58 -55 123 -161 132 -214 11 -62 20 -502 32 -1615
l6 -588 -246 0 -246 0 0 158 c-2 796 -26 1780 -46 1910 -10 64 -62 102 -135
97 -46 -3 -87 -25 -171 -88 l-68 -51 0 -1013 0 -1013 -245 0 -245 0 0 1645 0
1645 248 0 249 0 -3 -82z m-1794 -97 c3 -1 7 -119 9 -263 2 -145 4 -353 6
-463 2 -110 4 -285 5 -390 l1 -190 68 170 c37 94 107 269 154 390 47 121 133
339 190 485 l105 265 38 -1 c293 -9 418 -15 429 -21 10 -6 1 -40 -45 -153 -77
-193 -218 -540 -230 -565 -5 -11 -75 -180 -155 -375 l-146 -354 46 -116 c72
-180 77 -192 96 -235 9 -22 49 -121 89 -220 39 -99 78 -193 85 -210 7 -16 18
-43 25 -60 25 -61 279 -692 299 -743 l21 -54 -265 4 c-164 2 -266 7 -269 13
-12 28 -415 1070 -463 1195 -30 80 -59 149 -64 154 -5 6 -9 -59 -10 -155 0
-90 -2 -243 -4 -339 -1 -96 -4 -334 -6 -527 l-4 -353 -245 0 -245 0 1 1553 c1
853 2 1554 3 1557 1 4 461 5 481 1z"/>
</g>
</svg>
